<svg t="1598857450586" class="icon" viewBox="0 0 1024 1024" version="1.1" xmlns="http://www.w3.org/2000/svg" p-id="1327" width="200" height="200"><path d="M745.2672 173.6704H285.9008c-11.264 0-20.48-9.216-20.48-20.48s9.216-20.48 20.48-20.48h459.3664c11.264 0 20.48 9.216 20.48 20.48s-9.0112 20.48-20.48 20.48z" p-id="1328"></path><path d="M747.7248 911.1552H283.8528c-28.0576 0-53.8624-14.1312-68.8128-37.6832a81.65376 81.65376 0 0 1-5.5296-78.4384l163.0208-355.1232V137.216h286.72v302.6944l163.0208 355.1232c11.6736 25.3952 9.6256 54.6816-5.5296 78.4384s-40.96 37.6832-69.0176 37.6832zM413.2864 178.176v270.7456l-166.7072 363.3152c-5.9392 12.9024-4.9152 27.2384 2.6624 39.1168s20.2752 18.8416 34.4064 18.8416H747.52c14.1312 0 26.8288-6.7584 34.4064-18.8416 7.7824-11.8784 8.6016-26.2144 2.6624-39.1168l-166.7072-363.3152V178.176h-204.5952z" p-id="1329"></path><path d="M747.52 910.9504H411.0336c-28.0576 0-53.8624-14.1312-69.0176-37.6832a81.65376 81.65376 0 0 1-5.5296-78.4384l130.4576-284.2624h224.256l130.4576 284.2624c11.6736 25.3952 9.6256 54.8864-5.5296 78.4384s-40.5504 37.6832-68.608 37.6832zM493.3632 551.5264l-119.6032 260.5056c-5.9392 12.9024-4.9152 27.2384 2.6624 39.3216 7.7824 11.8784 20.2752 18.8416 34.4064 18.8416H747.52c14.336 0 26.8288-6.9632 34.4064-18.8416 7.7824-12.0832 8.6016-26.2144 2.6624-39.3216l-119.6032-260.5056h-171.6224z" p-id="1330"></path><path d="M642.8672 669.696m-20.48 0a20.48 20.48 0 1 0 40.96 0 20.48 20.48 0 1 0-40.96 0Z" p-id="1331"></path><path d="M499.5072 731.136m-20.48 0a20.48 20.48 0 1 0 40.96 0 20.48 20.48 0 1 0-40.96 0Z" p-id="1332"></path><path d="M622.3872 813.056m-20.48 0a20.48 20.48 0 1 0 40.96 0 20.48 20.48 0 1 0-40.96 0Z" p-id="1333"></path></svg>