<svg t="1598857390676" class="icon" viewBox="0 0 1024 1024" version="1.1" xmlns="http://www.w3.org/2000/svg" p-id="1185" width="200" height="200"><path d="M332.8 537.6h-51.2c-12.8 0-25.6 12.8-25.6 25.6s12.8 25.6 25.6 25.6h51.2c12.8 0 25.6-12.8 25.6-25.6s-12.8-25.6-25.6-25.6zM332.8 384h-51.2c-12.8 0-25.6 12.8-25.6 25.6s12.8 25.6 25.6 25.6h51.2c12.8 0 25.6-12.8 25.6-25.6s-12.8-25.6-25.6-25.6zM742.4 537.6h-307.2c-12.8 0-25.6 12.8-25.6 25.6s12.8 25.6 25.6 25.6h307.2c12.8 0 25.6-12.8 25.6-25.6s-12.8-25.6-25.6-25.6zM332.8 691.2h-51.2c-12.8 0-25.6 12.8-25.6 25.6s12.8 25.6 25.6 25.6h51.2c12.8 0 25.6-12.8 25.6-25.6s-12.8-25.6-25.6-25.6zM742.4 691.2h-307.2c-12.8 0-25.6 12.8-25.6 25.6s12.8 25.6 25.6 25.6h307.2c12.8 0 25.6-12.8 25.6-25.6s-12.8-25.6-25.6-25.6zM742.4 384h-307.2c-12.8 0-25.6 12.8-25.6 25.6s12.8 25.6 25.6 25.6h307.2c12.8 0 25.6-12.8 25.6-25.6s-12.8-25.6-25.6-25.6z" p-id="1186"></path><path d="M896 153.6h-128v-76.8c0-12.8-12.8-25.6-25.6-25.6s-25.6 12.8-25.6 25.6v76.8h-409.6v-76.8c0-12.8-12.8-25.6-25.6-25.6s-25.6 12.8-25.6 25.6v76.8h-128c-15.36 0-25.6 10.24-25.6 25.6v768c0 15.36 10.24 25.6 25.6 25.6h768c15.36 0 25.6-10.24 25.6-25.6v-768c0-15.36-10.24-25.6-25.6-25.6z m-25.6 768h-716.8v-716.8h102.4v25.6c0 12.8 12.8 25.6 25.6 25.6s25.6-12.8 25.6-25.6v-25.6h409.6v25.6c0 12.8 12.8 25.6 25.6 25.6s25.6-12.8 25.6-25.6v-25.6h102.4v716.8z" p-id="1187"></path></svg>