<svg t="1598963735418" class="icon" viewBox="0 0 1024 1024" version="1.1" xmlns="http://www.w3.org/2000/svg" p-id="1660" width="200" height="200"><path d="M682.666667 93.866667l226.133333 223.146666H682.666667z m-567.466667 0v836.266666h793.6V372.48H853.333333v501.76H170.666667v-725.333333h454.826666V93.866667z m558.933333 533.333333c-23.893333 31.146667-99.84 53.76-190.293333 53.76s-166.826667-22.613333-190.72-53.76c-5.12-6.4-7.68-2.986667-7.68 0v45.226667c0 42.666667 88.746667 90.026667 198.4 90.026666S682.666667 717.226667 682.666667 672.853333v-45.226666c0-3.413333-2.986667-6.826667-8.106667 0z m0-139.52c-23.466667 29.44-100.266667 51.2-190.72 51.2s-167.68-21.76-191.146666-51.2c-4.693333-6.4-7.253333-2.986667-7.253334 0v57.6c0 42.666667 88.746667 78.08 198.4 78.08S682.666667 588.373333 682.666667 545.28v-57.6c0-2.986667-2.986667-6.4-7.68 0z m-190.72-170.666667c-109.653333 0-198.4 29.44-198.4 65.706667v31.573333c0 38.4 88.746667 69.973333 198.4 69.973334S682.666667 452.693333 682.666667 414.293333V384c0-36.266667-89.173333-65.706667-198.4-65.706667z" p-id="1661"></path></svg>